<svg width="1024" height="1024" viewBox="0 0 1024 1024" fill="none" xmlns="http://www.w3.org/2000/svg">
  <defs>
    <linearGradient id="bg" x1="128" y1="96" x2="896" y2="928" gradientUnits="userSpaceOnUse">
      <stop offset="0" stop-color="#0EA5E9"/>
      <stop offset="1" stop-color="#2563EB"/>
    </linearGradient>
    <linearGradient id="folder" x1="220" y1="330" x2="804" y2="760" gradientUnits="userSpaceOnUse">
      <stop offset="0" stop-color="#F8FAFC" stop-opacity="0.98"/>
      <stop offset="1" stop-color="#DBEAFE" stop-opacity="0.95"/>
    </linearGradient>
  </defs>

  <rect x="72" y="72" width="880" height="880" rx="220" fill="url(#bg)"/>

  <path d="M260 356C260 332.804 278.804 314 302 314H438C447.684 314 457.077 317.337 464.593 323.451L494.407 347.549C501.923 353.663 511.316 357 521 357H722C745.196 357 764 375.804 764 399V426H260V356Z" fill="#BFDBFE" fill-opacity="0.95"/>
  <rect x="220" y="392" width="584" height="318" rx="48" fill="url(#folder)"/>

  <path d="M350 645V468H448C493 468 522 492 522 529C522 561 500 578 475 585L531 645H484L435 592H401V645H350ZM401 553H440C460 553 471 543 471 528C471 513 460 505 440 505H401V553Z" fill="#1E3A8A"/>
  <path d="M548 645V468H600V538L667 468H731L657 545L738 645H674L621 579L600 602V645H548Z" fill="#1E3A8A"/>
</svg>
